name rise49.25peak52.1432fall72.8391.mot
datacolumns 19
datarows 20
range 14.42160700000000 14.45327800000000
endheader
time	ground_force1_vx	ground_force1_vy	ground_force1_vz	ground_force1_px	ground_force1_py	ground_force1_pz	ground_force2_vx	ground_force2_vy	ground_force2_vz	ground_force2_px	ground_force2_py	ground_force2_pz	ground_torque1_x	ground_torque1_y	ground_torque1_z	ground_torque2_x	ground_torque2_y	ground_torque2_z	
14.42160700000000	-7.14645000000000	40.78179600000000	-8.25890000000000	0.29007600000000	0.00000000000000	0.09025700000000	-57.96948100000000	794.88417600000002	-47.99769600000000	0.10020800000000	0.00000000000000	-0.07803500000000	0.00000000000000	-4.81031500000000	0.00000000000000	0.00000000000000	-16.66298300000000	0.00000000000000	
14.42328100000000	-7.82298400000000	47.75977900000000	-9.26126500000000	0.29545300000000	0.00000000000000	0.09108800000000	-59.01109000000000	792.31867299999999	-47.68320800000000	0.09912400000000	0.00000000000000	-0.07793800000000	0.00000000000000	-5.47067000000000	0.00000000000000	0.00000000000000	-16.68267300000000	0.00000000000000	
14.42494400000000	-8.35925600000000	54.81648300000000	-10.16243000000000	0.30037800000000	0.00000000000000	0.09184600000000	-60.06171700000000	789.61380999999994	-47.35010400000000	0.09804000000000	0.00000000000000	-0.07783800000000	0.00000000000000	-6.08673900000000	0.00000000000000	0.00000000000000	-16.70394700000000	0.00000000000000	
14.42660700000000	-8.73530700000000	61.86074600000000	-10.94036000000000	0.30492300000000	0.00000000000000	0.09254100000000	-61.11965400000000	786.76592000000005	-46.99806200000000	0.09695700000000	0.00000000000000	-0.07773700000000	0.00000000000000	-6.64425900000000	0.00000000000000	0.00000000000000	-16.72655600000000	0.00000000000000	
14.42828000000000	-8.93917600000000	68.82409199999999	-11.58057100000000	0.30914800000000	0.00000000000000	0.09318200000000	-62.18309600000000	783.77135199999998	-46.62678500000000	0.09587700000000	0.00000000000000	-0.07763300000000	0.00000000000000	-7.13318600000000	0.00000000000000	0.00000000000000	-16.75023600000000	0.00000000000000	
14.42994700000000	-8.96678100000000	75.66281200000000	-12.07620500000000	0.31309900000000	0.00000000000000	0.09377600000000	-63.25014400000000	780.62648300000001	-46.23600000000000	0.09480000000000	0.00000000000000	-0.07752600000000	0.00000000000000	-7.54786400000000	0.00000000000000	0.00000000000000	-16.77470600000000	0.00000000000000	
14.43161300000000	-8.82118500000000	82.35766200000000	-12.42747200000000	0.31681400000000	0.00000000000000	0.09432800000000	-64.31880400000000	777.32773099999997	-45.82546500000000	0.09372800000000	0.00000000000000	-0.07741800000000	0.00000000000000	-7.88681800000000	0.00000000000000	0.00000000000000	-16.79967300000000	0.00000000000000	
14.43328200000000	-8.51139800000000	88.91159800000000	-12.64060400000000	0.32032400000000	0.00000000000000	0.09484300000000	-65.38699600000000	773.87156900000002	-45.39497100000000	0.09266200000000	0.00000000000000	-0.07730600000000	0.00000000000000	-8.15223800000000	0.00000000000000	0.00000000000000	-16.82482700000000	0.00000000000000	
14.43494600000000	-8.05089900000000	95.34607300000000	-12.72649800000000	0.32365400000000	0.00000000000000	0.09532600000000	-66.45255800000000	770.25453900000002	-44.94434100000000	0.09160500000000	0.00000000000000	-0.07719100000000	0.00000000000000	-8.34924900000000	0.00000000000000	0.00000000000000	-16.84984400000000	0.00000000000000	
14.43660600000000	-7.45606000000000	101.69645300000001	-12.69921500000000	0.32682500000000	0.00000000000000	0.09578000000000	-67.51324400000000	766.47326599999997	-44.47343500000000	0.09055600000000	0.00000000000000	-0.07707400000000	0.00000000000000	-8.48506100000000	0.00000000000000	0.00000000000000	-16.87439000000000	0.00000000000000	
14.43827200000000	-6.74459400000000	108.00709500000001	-12.57447700000000	0.32985500000000	0.00000000000000	0.09620800000000	-68.56673900000000	762.52447400000005	-43.98215200000000	0.08951700000000	0.00000000000000	-0.07695400000000	0.00000000000000	-8.56810100000000	0.00000000000000	0.00000000000000	-16.89811700000000	0.00000000000000	
14.43994700000000	-5.93418100000000	114.32652800000000	-12.36829700000000	0.33275700000000	0.00000000000000	0.09661300000000	-69.61065600000001	758.40500199999997	-43.47043000000000	0.08848900000000	0.00000000000000	-0.07683000000000	0.00000000000000	-8.60719100000000	0.00000000000000	0.00000000000000	-16.92066700000000	0.00000000000000	
14.44160800000000	-5.04131900000000	120.70312600000000	-12.09581200000000	0.33554300000000	0.00000000000000	0.09699600000000	-70.64254699999999	754.11181599999998	-42.93825100000000	0.08747400000000	0.00000000000000	-0.07670300000000	0.00000000000000	-8.61082900000000	0.00000000000000	0.00000000000000	-16.94167100000000	0.00000000000000	
14.44328100000000	-4.08047400000000	127.18150300000001	-11.77039200000000	0.33822200000000	0.00000000000000	0.09736000000000	-71.65990600000001	749.64202599999999	-42.38564200000000	0.08647200000000	0.00000000000000	-0.07657300000000	0.00000000000000	-8.58662900000000	0.00000000000000	0.00000000000000	-16.96075500000000	0.00000000000000	
14.44494100000000	-3.06353700000000	133.79980699999999	-11.40303300000000	0.34080400000000	0.00000000000000	0.09770600000000	-72.66017900000000	744.99290599999995	-41.81267400000000	0.08548500000000	0.00000000000000	-0.07644000000000	0.00000000000000	-8.54090900000000	0.00000000000000	0.00000000000000	-16.97753400000000	0.00000000000000	
14.44661500000000	-1.99956500000000	140.58794300000000	-11.00204400000000	0.34329300000000	0.00000000000000	0.09803600000000	-73.64076600000000	740.16190300000005	-41.21946800000000	0.08451400000000	0.00000000000000	-0.07630300000000	0.00000000000000	-8.47846200000000	0.00000000000000	0.00000000000000	-16.99161800000000	0.00000000000000	
14.44827400000000	-0.89479300000000	147.56669800000000	-10.57298200000000	0.34569600000000	0.00000000000000	0.09835100000000	-74.59903500000000	735.14666099999999	-40.60619400000000	0.08355900000000	0.00000000000000	-0.07616200000000	0.00000000000000	-8.40247900000000	0.00000000000000	0.00000000000000	-17.00261400000000	0.00000000000000	
14.44993900000000	0.24714900000000	154.74767700000001	-10.11881400000000	0.34801700000000	0.00000000000000	0.09865300000000	-75.53232199999999	729.94503199999997	-39.97307000000000	0.08262200000000	0.00000000000000	-0.07601800000000	0.00000000000000	-8.31460200000000	0.00000000000000	0.00000000000000	-17.01012300000000	0.00000000000000	
14.45160800000000	1.42485600000000	162.13389500000000	-9.64023600000000	0.35025900000000	0.00000000000000	0.09894200000000	-76.43794300000000	724.55509700000005	-39.32036900000000	0.08170300000000	0.00000000000000	-0.07587100000000	0.00000000000000	-8.21508900000000	0.00000000000000	0.00000000000000	-17.01374600000000	0.00000000000000	
14.45327800000000	2.63867300000000	169.72086400000001	-9.13611000000000	0.35242500000000	0.00000000000000	0.09921900000000	-77.31320100000001	718.97518300000002	-38.64841300000000	0.08080300000000	0.00000000000000	-0.07571900000000	0.00000000000000	-8.10305800000000	0.00000000000000	0.00000000000000	-17.01308200000000	0.00000000000000	
